<svg xmlns="http://www.w3.org/2000/svg" xmlns:xlink="http://www.w3.org/1999/xlink" width="1920" zoomAndPan="magnify" viewBox="0 0 1440 809.999993" height="1080" preserveAspectRatio="xMidYMid meet" version="1.0"><defs><g/><clipPath id="9bffe6ff2e"><path d="M 1.136719 0.390625 L 142.695312 0.390625 L 142.695312 91.675781 L 1.136719 91.675781 Z M 1.136719 0.390625 " clip-rule="nonzero"/></clipPath><clipPath id="9309d2328c"><path d="M 23.21875 0.390625 L 120.390625 0.390625 C 132.589844 0.390625 142.476562 10.28125 142.476562 22.476562 L 142.476562 69.589844 C 142.476562 81.785156 132.589844 91.675781 120.390625 91.675781 L 23.21875 91.675781 C 11.023438 91.675781 1.136719 81.785156 1.136719 69.589844 L 1.136719 22.476562 C 1.136719 10.28125 11.023438 0.390625 23.21875 0.390625 Z M 23.21875 0.390625 " clip-rule="nonzero"/></clipPath><clipPath id="0f10422145"><path d="M 0.136719 0.390625 L 141.558594 0.390625 L 141.558594 91.675781 L 0.136719 91.675781 Z M 0.136719 0.390625 " clip-rule="nonzero"/></clipPath><clipPath id="05b801610c"><path d="M 22.21875 0.390625 L 119.390625 0.390625 C 131.589844 0.390625 141.476562 10.28125 141.476562 22.476562 L 141.476562 69.589844 C 141.476562 81.785156 131.589844 91.675781 119.390625 91.675781 L 22.21875 91.675781 C 10.023438 91.675781 0.136719 81.785156 0.136719 69.589844 L 0.136719 22.476562 C 0.136719 10.28125 10.023438 0.390625 22.21875 0.390625 Z M 22.21875 0.390625 " clip-rule="nonzero"/></clipPath><clipPath id="829e447140"><rect x="0" width="142" y="0" height="92"/></clipPath><clipPath id="63c5ff4d85"><path d="M 0.8125 143.445312 L 142.371094 143.445312 L 142.371094 234.726562 L 0.8125 234.726562 Z M 0.8125 143.445312 " clip-rule="nonzero"/></clipPath><clipPath id="7103f0aba7"><path d="M 22.898438 143.445312 L 120.066406 143.445312 C 132.265625 143.445312 142.152344 153.332031 142.152344 165.527344 L 142.152344 212.640625 C 142.152344 224.839844 132.265625 234.726562 120.066406 234.726562 L 22.898438 234.726562 C 10.699219 234.726562 0.8125 224.839844 0.8125 212.640625 L 0.8125 165.527344 C 0.8125 153.332031 10.699219 143.445312 22.898438 143.445312 Z M 22.898438 143.445312 " clip-rule="nonzero"/></clipPath><clipPath id="110e08678b"><path d="M 0.8125 0.445312 L 142.320312 0.445312 L 142.320312 91.726562 L 0.8125 91.726562 Z M 0.8125 0.445312 " clip-rule="nonzero"/></clipPath><clipPath id="669e4a1ae7"><path d="M 22.898438 0.445312 L 120.066406 0.445312 C 132.265625 0.445312 142.152344 10.332031 142.152344 22.527344 L 142.152344 69.640625 C 142.152344 81.839844 132.265625 91.726562 120.066406 91.726562 L 22.898438 91.726562 C 10.699219 91.726562 0.8125 81.839844 0.8125 69.640625 L 0.8125 22.527344 C 0.8125 10.332031 10.699219 0.445312 22.898438 0.445312 Z M 22.898438 0.445312 " clip-rule="nonzero"/></clipPath><clipPath id="e8b4577729"><rect x="0" width="143" y="0" height="92"/></clipPath><clipPath id="7a59b0f729"><path d="M 1.136719 429.070312 L 142.695312 429.070312 L 142.695312 520.351562 L 1.136719 520.351562 Z M 1.136719 429.070312 " clip-rule="nonzero"/></clipPath><clipPath id="7a16730502"><path d="M 23.21875 429.070312 L 120.390625 429.070312 C 132.589844 429.070312 142.476562 438.957031 142.476562 451.152344 L 142.476562 498.265625 C 142.476562 510.464844 132.589844 520.351562 120.390625 520.351562 L 23.21875 520.351562 C 11.023438 520.351562 1.136719 510.464844 1.136719 498.265625 L 1.136719 451.152344 C 1.136719 438.957031 11.023438 429.070312 23.21875 429.070312 Z M 23.21875 429.070312 " clip-rule="nonzero"/></clipPath><clipPath id="b3206a53e3"><path d="M 0.136719 0.0703125 L 141.558594 0.0703125 L 141.558594 91.351562 L 0.136719 91.351562 Z M 0.136719 0.0703125 " clip-rule="nonzero"/></clipPath><clipPath id="c87a356178"><path d="M 22.21875 0.0703125 L 119.390625 0.0703125 C 131.589844 0.0703125 141.476562 9.957031 141.476562 22.152344 L 141.476562 69.265625 C 141.476562 81.464844 131.589844 91.351562 119.390625 91.351562 L 22.21875 91.351562 C 10.023438 91.351562 0.136719 81.464844 0.136719 69.265625 L 0.136719 22.152344 C 0.136719 9.957031 10.023438 0.0703125 22.21875 0.0703125 Z M 22.21875 0.0703125 " clip-rule="nonzero"/></clipPath><clipPath id="29ef221fca"><rect x="0" width="142" y="0" height="92"/></clipPath><clipPath id="e682e7277d"><path d="M 1.136719 571.882812 L 142.695312 571.882812 L 142.695312 663.164062 L 1.136719 663.164062 Z M 1.136719 571.882812 " clip-rule="nonzero"/></clipPath><clipPath id="b55832298f"><path d="M 23.21875 571.882812 L 120.390625 571.882812 C 132.589844 571.882812 142.476562 581.769531 142.476562 593.964844 L 142.476562 641.078125 C 142.476562 653.273438 132.589844 663.164062 120.390625 663.164062 L 23.21875 663.164062 C 11.023438 663.164062 1.136719 653.273438 1.136719 641.078125 L 1.136719 593.964844 C 1.136719 581.769531 11.023438 571.882812 23.21875 571.882812 Z M 23.21875 571.882812 " clip-rule="nonzero"/></clipPath><clipPath id="82219a6712"><path d="M 0.136719 0.882812 L 141.558594 0.882812 L 141.558594 92.164062 L 0.136719 92.164062 Z M 0.136719 0.882812 " clip-rule="nonzero"/></clipPath><clipPath id="ca84671b39"><path d="M 22.21875 0.882812 L 119.390625 0.882812 C 131.589844 0.882812 141.476562 10.769531 141.476562 22.964844 L 141.476562 70.078125 C 141.476562 82.273438 131.589844 92.164062 119.390625 92.164062 L 22.21875 92.164062 C 10.023438 92.164062 0.136719 82.273438 0.136719 70.078125 L 0.136719 22.964844 C 0.136719 10.769531 10.023438 0.882812 22.21875 0.882812 Z M 22.21875 0.882812 " clip-rule="nonzero"/></clipPath><clipPath id="c045d23973"><rect x="0" width="142" y="0" height="93"/></clipPath><clipPath id="d247611f23"><path d="M 1.136719 286.257812 L 142.695312 286.257812 L 142.695312 377.539062 L 1.136719 377.539062 Z M 1.136719 286.257812 " clip-rule="nonzero"/></clipPath><clipPath id="a27aca2fcf"><path d="M 23.21875 286.257812 L 120.390625 286.257812 C 132.589844 286.257812 142.476562 296.144531 142.476562 308.339844 L 142.476562 355.453125 C 142.476562 367.652344 132.589844 377.539062 120.390625 377.539062 L 23.21875 377.539062 C 11.023438 377.539062 1.136719 367.652344 1.136719 355.453125 L 1.136719 308.339844 C 1.136719 296.144531 11.023438 286.257812 23.21875 286.257812 Z M 23.21875 286.257812 " clip-rule="nonzero"/></clipPath><clipPath id="51ea10a35c"><path d="M 0.136719 0.257812 L 141.558594 0.257812 L 141.558594 91.539062 L 0.136719 91.539062 Z M 0.136719 0.257812 " clip-rule="nonzero"/></clipPath><clipPath id="675e84b34c"><path d="M 22.21875 0.257812 L 119.390625 0.257812 C 131.589844 0.257812 141.476562 10.144531 141.476562 22.339844 L 141.476562 69.453125 C 141.476562 81.652344 131.589844 91.539062 119.390625 91.539062 L 22.21875 91.539062 C 10.023438 91.539062 0.136719 81.652344 0.136719 69.453125 L 0.136719 22.339844 C 0.136719 10.144531 10.023438 0.257812 22.21875 0.257812 Z M 22.21875 0.257812 " clip-rule="nonzero"/></clipPath><clipPath id="2f1bc24025"><rect x="0" width="142" y="0" height="92"/></clipPath><clipPath id="68f5988f7f"><rect x="0" width="143" y="0" height="664"/></clipPath></defs><g transform="matrix(1, 0, 0, 1, 648, 73)"><g clip-path="url(#68f5988f7f)"><g clip-path="url(#9bffe6ff2e)"><g clip-path="url(#9309d2328c)"><g transform="matrix(1, 0, 0, 1, 1, 0.000000000000042633)"><g clip-path="url(#829e447140)"><g clip-path="url(#0f10422145)"><g clip-path="url(#05b801610c)"><path fill="#00bf63" d="M 0.136719 0.390625 L 141.339844 0.390625 L 141.339844 91.675781 L 0.136719 91.675781 Z M 0.136719 0.390625 " fill-opacity="1" fill-rule="nonzero"/></g></g></g></g></g></g><g fill="#000000" fill-opacity="1"><g transform="translate(27.257703, 40.879946)"><g><path d="M 6.875 0 L 1.234375 0 L 1.234375 -9.796875 L 6.875 -9.796875 L 6.875 -8.09375 L 3.3125 -8.09375 L 3.3125 -5.953125 L 6.625 -5.953125 L 6.625 -4.25 L 3.3125 -4.25 L 3.3125 -1.71875 L 6.875 -1.71875 Z M 6.875 0 "/></g></g></g><g fill="#000000" fill-opacity="1"><g transform="translate(34.949386, 40.879946)"><g><path d="M 8 0 L 5.953125 0 L 5.953125 -4.375 C 5.953125 -4.914062 5.851562 -5.320312 5.65625 -5.59375 C 5.46875 -5.863281 5.160156 -6 4.734375 -6 C 4.171875 -6 3.757812 -5.804688 3.5 -5.421875 C 3.25 -5.046875 3.125 -4.414062 3.125 -3.53125 L 3.125 0 L 1.078125 0 L 1.078125 -7.5 L 2.640625 -7.5 L 2.90625 -6.53125 L 3.03125 -6.53125 C 3.25 -6.894531 3.554688 -7.171875 3.953125 -7.359375 C 4.359375 -7.546875 4.816406 -7.640625 5.328125 -7.640625 C 6.203125 -7.640625 6.863281 -7.398438 7.3125 -6.921875 C 7.769531 -6.453125 8 -5.773438 8 -4.890625 Z M 8 0 "/></g></g></g><g fill="#000000" fill-opacity="1"><g transform="translate(43.975545, 40.879946)"><g><path d="M 2.859375 0 L 0 -7.5 L 2.140625 -7.5 L 3.59375 -3.21875 C 3.75 -2.6875 3.847656 -2.175781 3.890625 -1.6875 L 3.9375 -1.6875 C 3.957031 -2.113281 4.054688 -2.625 4.234375 -3.21875 L 5.671875 -7.5 L 7.8125 -7.5 L 4.953125 0 Z M 2.859375 0 "/></g></g></g><g fill="#000000" fill-opacity="1"><g transform="translate(51.787934, 40.879946)"><g><path d="M 0.984375 -9.4375 C 0.984375 -10.101562 1.351562 -10.4375 2.09375 -10.4375 C 2.84375 -10.4375 3.21875 -10.101562 3.21875 -9.4375 C 3.21875 -9.113281 3.125 -8.863281 2.9375 -8.6875 C 2.75 -8.519531 2.46875 -8.4375 2.09375 -8.4375 C 1.351562 -8.4375 0.984375 -8.769531 0.984375 -9.4375 Z M 3.125 0 L 1.078125 0 L 1.078125 -7.5 L 3.125 -7.5 Z M 3.125 0 "/></g></g></g><g fill="#000000" fill-opacity="1"><g transform="translate(55.97913, 40.879946)"><g><path d="M 5.25 -7.640625 C 5.53125 -7.640625 5.765625 -7.617188 5.953125 -7.578125 L 5.796875 -5.65625 C 5.628906 -5.707031 5.425781 -5.734375 5.1875 -5.734375 C 4.539062 -5.734375 4.035156 -5.5625 3.671875 -5.21875 C 3.304688 -4.882812 3.125 -4.414062 3.125 -3.8125 L 3.125 0 L 1.078125 0 L 1.078125 -7.5 L 2.625 -7.5 L 2.921875 -6.234375 L 3.03125 -6.234375 C 3.257812 -6.660156 3.570312 -7 3.96875 -7.25 C 4.363281 -7.507812 4.789062 -7.640625 5.25 -7.640625 Z M 5.25 -7.640625 "/></g></g></g><g fill="#000000" fill-opacity="1"><g transform="translate(62.21563, 40.879946)"><g><path d="M 2.703125 -3.765625 C 2.703125 -3.023438 2.820312 -2.460938 3.0625 -2.078125 C 3.3125 -1.703125 3.710938 -1.515625 4.265625 -1.515625 C 4.804688 -1.515625 5.195312 -1.703125 5.4375 -2.078125 C 5.675781 -2.453125 5.796875 -3.015625 5.796875 -3.765625 C 5.796875 -4.503906 5.671875 -5.054688 5.421875 -5.421875 C 5.179688 -5.796875 4.789062 -5.984375 4.25 -5.984375 C 3.695312 -5.984375 3.300781 -5.796875 3.0625 -5.421875 C 2.820312 -5.054688 2.703125 -4.503906 2.703125 -3.765625 Z M 7.890625 -3.765625 C 7.890625 -2.546875 7.566406 -1.585938 6.921875 -0.890625 C 6.273438 -0.203125 5.378906 0.140625 4.234375 0.140625 C 3.515625 0.140625 2.878906 -0.015625 2.328125 -0.328125 C 1.773438 -0.648438 1.347656 -1.101562 1.046875 -1.6875 C 0.753906 -2.28125 0.609375 -2.972656 0.609375 -3.765625 C 0.609375 -4.984375 0.925781 -5.929688 1.5625 -6.609375 C 2.207031 -7.296875 3.109375 -7.640625 4.265625 -7.640625 C 4.992188 -7.640625 5.628906 -7.484375 6.171875 -7.171875 C 6.722656 -6.859375 7.144531 -6.40625 7.4375 -5.8125 C 7.738281 -5.226562 7.890625 -4.546875 7.890625 -3.765625 Z M 7.890625 -3.765625 "/></g></g></g><g fill="#000000" fill-opacity="1"><g transform="translate(70.718728, 40.879946)"><g><path d="M 8 0 L 5.953125 0 L 5.953125 -4.375 C 5.953125 -4.914062 5.851562 -5.320312 5.65625 -5.59375 C 5.46875 -5.863281 5.160156 -6 4.734375 -6 C 4.171875 -6 3.757812 -5.804688 3.5 -5.421875 C 3.25 -5.046875 3.125 -4.414062 3.125 -3.53125 L 3.125 0 L 1.078125 0 L 1.078125 -7.5 L 2.640625 -7.5 L 2.90625 -6.53125 L 3.03125 -6.53125 C 3.25 -6.894531 3.554688 -7.171875 3.953125 -7.359375 C 4.359375 -7.546875 4.816406 -7.640625 5.328125 -7.640625 C 6.203125 -7.640625 6.863281 -7.398438 7.3125 -6.921875 C 7.769531 -6.453125 8 -5.773438 8 -4.890625 Z M 8 0 "/></g></g></g><g fill="#000000" fill-opacity="1"><g transform="translate(79.744887, 40.879946)"><g><path d="M 7.78125 0 L 5.734375 0 L 5.734375 -4.375 C 5.734375 -4.914062 5.644531 -5.320312 5.46875 -5.59375 C 5.289062 -5.863281 5.003906 -6 4.609375 -6 C 4.085938 -6 3.707031 -5.804688 3.46875 -5.421875 C 3.238281 -5.035156 3.125 -4.40625 3.125 -3.53125 L 3.125 0 L 1.078125 0 L 1.078125 -7.5 L 2.640625 -7.5 L 2.90625 -6.53125 L 3.03125 -6.53125 C 3.226562 -6.882812 3.515625 -7.15625 3.890625 -7.34375 C 4.273438 -7.539062 4.710938 -7.640625 5.203125 -7.640625 C 6.328125 -7.640625 7.085938 -7.269531 7.484375 -6.53125 L 7.671875 -6.53125 C 7.867188 -6.882812 8.160156 -7.15625 8.546875 -7.34375 C 8.941406 -7.539062 9.382812 -7.640625 9.875 -7.640625 C 10.726562 -7.640625 11.367188 -7.421875 11.796875 -6.984375 C 12.234375 -6.546875 12.453125 -5.847656 12.453125 -4.890625 L 12.453125 0 L 10.40625 0 L 10.40625 -4.375 C 10.40625 -4.914062 10.3125 -5.320312 10.125 -5.59375 C 9.945312 -5.863281 9.664062 -6 9.28125 -6 C 8.78125 -6 8.40625 -5.816406 8.15625 -5.453125 C 7.90625 -5.097656 7.78125 -4.535156 7.78125 -3.765625 Z M 7.78125 0 "/></g></g></g><g fill="#000000" fill-opacity="1"><g transform="translate(93.230479, 40.879946)"><g><path d="M 4.171875 -6.1875 C 3.742188 -6.1875 3.40625 -6.046875 3.15625 -5.765625 C 2.914062 -5.492188 2.773438 -5.101562 2.734375 -4.59375 L 5.609375 -4.59375 C 5.597656 -5.101562 5.460938 -5.492188 5.203125 -5.765625 C 4.953125 -6.046875 4.609375 -6.1875 4.171875 -6.1875 Z M 4.46875 0.140625 C 3.257812 0.140625 2.3125 -0.191406 1.625 -0.859375 C 0.945312 -1.523438 0.609375 -2.46875 0.609375 -3.6875 C 0.609375 -4.945312 0.921875 -5.921875 1.546875 -6.609375 C 2.179688 -7.296875 3.054688 -7.640625 4.171875 -7.640625 C 5.222656 -7.640625 6.046875 -7.335938 6.640625 -6.734375 C 7.234375 -6.128906 7.53125 -5.296875 7.53125 -4.234375 L 7.53125 -3.234375 L 2.6875 -3.234375 C 2.707031 -2.660156 2.878906 -2.207031 3.203125 -1.875 C 3.523438 -1.550781 3.976562 -1.390625 4.5625 -1.390625 C 5.007812 -1.390625 5.429688 -1.4375 5.828125 -1.53125 C 6.234375 -1.625 6.660156 -1.773438 7.109375 -1.984375 L 7.109375 -0.390625 C 6.742188 -0.210938 6.359375 -0.0820312 5.953125 0 C 5.546875 0.09375 5.050781 0.140625 4.46875 0.140625 Z M 4.46875 0.140625 "/></g></g></g><g fill="#000000" fill-opacity="1"><g transform="translate(101.344635, 40.879946)"><g><path d="M 8 0 L 5.953125 0 L 5.953125 -4.375 C 5.953125 -4.914062 5.851562 -5.320312 5.65625 -5.59375 C 5.46875 -5.863281 5.160156 -6 4.734375 -6 C 4.171875 -6 3.757812 -5.804688 3.5 -5.421875 C 3.25 -5.046875 3.125 -4.414062 3.125 -3.53125 L 3.125 0 L 1.078125 0 L 1.078125 -7.5 L 2.640625 -7.5 L 2.90625 -6.53125 L 3.03125 -6.53125 C 3.25 -6.894531 3.554688 -7.171875 3.953125 -7.359375 C 4.359375 -7.546875 4.816406 -7.640625 5.328125 -7.640625 C 6.203125 -7.640625 6.863281 -7.398438 7.3125 -6.921875 C 7.769531 -6.453125 8 -5.773438 8 -4.890625 Z M 8 0 "/></g></g></g><g fill="#000000" fill-opacity="1"><g transform="translate(110.370794, 40.879946)"><g><path d="M 4.234375 -1.5 C 4.585938 -1.5 5.015625 -1.578125 5.515625 -1.734375 L 5.515625 -0.203125 C 5.003906 0.0234375 4.378906 0.140625 3.640625 0.140625 C 2.828125 0.140625 2.234375 -0.0664062 1.859375 -0.484375 C 1.484375 -0.898438 1.296875 -1.519531 1.296875 -2.34375 L 1.296875 -5.96875 L 0.3125 -5.96875 L 0.3125 -6.828125 L 1.4375 -7.515625 L 2.03125 -9.09375 L 3.34375 -9.09375 L 3.34375 -7.5 L 5.4375 -7.5 L 5.4375 -5.96875 L 3.34375 -5.96875 L 3.34375 -2.34375 C 3.34375 -2.050781 3.421875 -1.835938 3.578125 -1.703125 C 3.742188 -1.566406 3.960938 -1.5 4.234375 -1.5 Z M 4.234375 -1.5 "/></g></g></g><g fill="#000000" fill-opacity="1"><g transform="translate(46.236449, 60.019723)"><g><path d="M 0.546875 -3.765625 C 0.546875 -4.953125 0.71875 -6.0625 1.0625 -7.09375 C 1.414062 -8.125 1.914062 -9.023438 2.5625 -9.796875 L 4.25 -9.796875 C 3.613281 -8.941406 3.132812 -7.992188 2.8125 -6.953125 C 2.488281 -5.921875 2.328125 -4.863281 2.328125 -3.78125 C 2.328125 -2.675781 2.488281 -1.613281 2.8125 -0.59375 C 3.144531 0.425781 3.617188 1.347656 4.234375 2.171875 L 2.5625 2.171875 C 1.90625 1.410156 1.40625 0.523438 1.0625 -0.484375 C 0.71875 -1.503906 0.546875 -2.597656 0.546875 -3.765625 Z M 0.546875 -3.765625 "/></g></g></g><g fill="#000000" fill-opacity="1"><g transform="translate(50.890353, 60.019723)"><g><path d="M 7.015625 -2.71875 C 7.015625 -1.832031 6.695312 -1.132812 6.0625 -0.625 C 5.425781 -0.113281 4.539062 0.140625 3.40625 0.140625 C 2.363281 0.140625 1.4375 -0.0546875 0.625 -0.453125 L 0.625 -2.390625 C 1.289062 -2.085938 1.851562 -1.875 2.3125 -1.75 C 2.769531 -1.632812 3.1875 -1.578125 3.5625 -1.578125 C 4.019531 -1.578125 4.367188 -1.664062 4.609375 -1.84375 C 4.859375 -2.019531 4.984375 -2.28125 4.984375 -2.625 C 4.984375 -2.8125 4.925781 -2.976562 4.8125 -3.125 C 4.707031 -3.28125 4.550781 -3.425781 4.34375 -3.5625 C 4.132812 -3.707031 3.710938 -3.929688 3.078125 -4.234375 C 2.472656 -4.515625 2.019531 -4.785156 1.71875 -5.046875 C 1.425781 -5.304688 1.191406 -5.609375 1.015625 -5.953125 C 0.835938 -6.296875 0.75 -6.695312 0.75 -7.15625 C 0.75 -8.019531 1.039062 -8.703125 1.625 -9.203125 C 2.21875 -9.703125 3.03125 -9.953125 4.0625 -9.953125 C 4.570312 -9.953125 5.054688 -9.890625 5.515625 -9.765625 C 5.984375 -9.640625 6.46875 -9.46875 6.96875 -9.25 L 6.296875 -7.640625 C 5.773438 -7.847656 5.34375 -7.992188 5 -8.078125 C 4.664062 -8.171875 4.332031 -8.21875 4 -8.21875 C 3.601562 -8.21875 3.300781 -8.125 3.09375 -7.9375 C 2.882812 -7.757812 2.78125 -7.519531 2.78125 -7.21875 C 2.78125 -7.039062 2.820312 -6.878906 2.90625 -6.734375 C 2.988281 -6.597656 3.125 -6.46875 3.3125 -6.34375 C 3.5 -6.21875 3.9375 -5.988281 4.625 -5.65625 C 5.539062 -5.21875 6.164062 -4.78125 6.5 -4.34375 C 6.84375 -3.90625 7.015625 -3.363281 7.015625 -2.71875 Z M 7.015625 -2.71875 "/></g></g></g><g fill="#000000" fill-opacity="1"><g transform="translate(58.454623, 60.019723)"><g><path d="M 9.21875 -9.796875 L 9.21875 -3.453125 C 9.21875 -2.734375 9.050781 -2.097656 8.71875 -1.546875 C 8.394531 -1.003906 7.925781 -0.585938 7.3125 -0.296875 C 6.707031 -0.00390625 5.988281 0.140625 5.15625 0.140625 C 3.894531 0.140625 2.914062 -0.179688 2.21875 -0.828125 C 1.519531 -1.472656 1.171875 -2.359375 1.171875 -3.484375 L 1.171875 -9.796875 L 3.234375 -9.796875 L 3.234375 -3.796875 C 3.234375 -3.046875 3.382812 -2.492188 3.6875 -2.140625 C 4 -1.785156 4.503906 -1.609375 5.203125 -1.609375 C 5.878906 -1.609375 6.367188 -1.785156 6.671875 -2.140625 C 6.984375 -2.492188 7.140625 -3.050781 7.140625 -3.8125 L 7.140625 -9.796875 Z M 9.21875 -9.796875 "/></g></g></g><g fill="#000000" fill-opacity="1"><g transform="translate(68.835377, 60.019723)"><g><path d="M 5.390625 0 L 3.03125 -7.6875 L 2.96875 -7.6875 C 3.050781 -6.125 3.09375 -5.082031 3.09375 -4.5625 L 3.09375 0 L 1.234375 0 L 1.234375 -9.796875 L 4.0625 -9.796875 L 6.390625 -2.3125 L 6.421875 -2.3125 L 8.890625 -9.796875 L 11.71875 -9.796875 L 11.71875 0 L 9.78125 0 L 9.78125 -4.640625 C 9.78125 -4.859375 9.78125 -5.109375 9.78125 -5.390625 C 9.789062 -5.679688 9.820312 -6.441406 9.875 -7.671875 L 9.8125 -7.671875 L 7.296875 0 Z M 5.390625 0 "/></g></g></g><g fill="#000000" fill-opacity="1"><g transform="translate(81.784496, 60.019723)"><g><path d="M 10.140625 -4.921875 C 10.140625 -3.296875 9.734375 -2.046875 8.921875 -1.171875 C 8.117188 -0.296875 6.96875 0.140625 5.46875 0.140625 C 3.96875 0.140625 2.8125 -0.296875 2 -1.171875 C 1.195312 -2.046875 0.796875 -3.296875 0.796875 -4.921875 C 0.796875 -6.554688 1.195312 -7.800781 2 -8.65625 C 2.8125 -9.519531 3.972656 -9.953125 5.484375 -9.953125 C 6.984375 -9.953125 8.132812 -9.519531 8.9375 -8.65625 C 9.738281 -7.789062 10.140625 -6.546875 10.140625 -4.921875 Z M 2.984375 -4.921875 C 2.984375 -3.816406 3.1875 -2.988281 3.59375 -2.4375 C 4.007812 -1.882812 4.632812 -1.609375 5.46875 -1.609375 C 7.125 -1.609375 7.953125 -2.710938 7.953125 -4.921875 C 7.953125 -7.128906 7.128906 -8.234375 5.484375 -8.234375 C 4.648438 -8.234375 4.023438 -7.953125 3.609375 -7.390625 C 3.191406 -6.835938 2.984375 -6.015625 2.984375 -4.921875 Z M 2.984375 -4.921875 "/></g></g></g><g fill="#000000" fill-opacity="1"><g transform="translate(92.715135, 60.019723)"><g><path d="M 4.109375 -3.765625 C 4.109375 -2.585938 3.929688 -1.488281 3.578125 -0.46875 C 3.234375 0.539062 2.734375 1.421875 2.078125 2.171875 L 0.421875 2.171875 C 1.023438 1.347656 1.492188 0.425781 1.828125 -0.59375 C 2.160156 -1.613281 2.328125 -2.675781 2.328125 -3.78125 C 2.328125 -4.863281 2.164062 -5.921875 1.84375 -6.953125 C 1.519531 -7.992188 1.039062 -8.941406 0.40625 -9.796875 L 2.078125 -9.796875 C 2.742188 -9.015625 3.25 -8.109375 3.59375 -7.078125 C 3.9375 -6.046875 4.109375 -4.941406 4.109375 -3.765625 Z M 4.109375 -3.765625 "/></g></g></g><g clip-path="url(#63c5ff4d85)"><g clip-path="url(#7103f0aba7)"><g transform="matrix(1, 0, 0, 1, -0.000000000000113687, 143)"><g clip-path="url(#e8b4577729)"><g clip-path="url(#110e08678b)"><g clip-path="url(#669e4a1ae7)"><path fill="#00bf63" d="M 0.8125 0.445312 L 142.015625 0.445312 L 142.015625 91.726562 L 0.8125 91.726562 Z M 0.8125 0.445312 " fill-opacity="1" fill-rule="nonzero"/></g></g></g></g></g></g><g fill="#000000" fill-opacity="1"><g transform="translate(21.044811, 193.502177)"><g><path d="M 3.3125 -5.453125 L 3.984375 -5.453125 C 4.640625 -5.453125 5.125 -5.5625 5.4375 -5.78125 C 5.75 -6 5.90625 -6.34375 5.90625 -6.8125 C 5.90625 -7.28125 5.742188 -7.609375 5.421875 -7.796875 C 5.109375 -7.992188 4.613281 -8.09375 3.9375 -8.09375 L 3.3125 -8.09375 Z M 3.3125 -3.765625 L 3.3125 0 L 1.234375 0 L 1.234375 -9.796875 L 4.09375 -9.796875 C 5.425781 -9.796875 6.410156 -9.550781 7.046875 -9.0625 C 7.679688 -8.582031 8 -7.851562 8 -6.875 C 8 -6.289062 7.84375 -5.773438 7.53125 -5.328125 C 7.21875 -4.878906 6.769531 -4.523438 6.1875 -4.265625 C 7.65625 -2.066406 8.613281 -0.644531 9.0625 0 L 6.765625 0 L 4.421875 -3.765625 Z M 3.3125 -3.765625 "/></g></g></g><g fill="#000000" fill-opacity="1"><g transform="translate(30.111205, 193.502177)"><g><path d="M 4.171875 -6.1875 C 3.742188 -6.1875 3.40625 -6.046875 3.15625 -5.765625 C 2.914062 -5.492188 2.773438 -5.101562 2.734375 -4.59375 L 5.609375 -4.59375 C 5.597656 -5.101562 5.460938 -5.492188 5.203125 -5.765625 C 4.953125 -6.046875 4.609375 -6.1875 4.171875 -6.1875 Z M 4.46875 0.140625 C 3.257812 0.140625 2.3125 -0.191406 1.625 -0.859375 C 0.945312 -1.523438 0.609375 -2.46875 0.609375 -3.6875 C 0.609375 -4.945312 0.921875 -5.921875 1.546875 -6.609375 C 2.179688 -7.296875 3.054688 -7.640625 4.171875 -7.640625 C 5.222656 -7.640625 6.046875 -7.335938 6.640625 -6.734375 C 7.234375 -6.128906 7.53125 -5.296875 7.53125 -4.234375 L 7.53125 -3.234375 L 2.6875 -3.234375 C 2.707031 -2.660156 2.878906 -2.207031 3.203125 -1.875 C 3.523438 -1.550781 3.976562 -1.390625 4.5625 -1.390625 C 5.007812 -1.390625 5.429688 -1.4375 5.828125 -1.53125 C 6.234375 -1.625 6.660156 -1.773438 7.109375 -1.984375 L 7.109375 -0.390625 C 6.742188 -0.210938 6.359375 -0.0820312 5.953125 0 C 5.546875 0.09375 5.050781 0.140625 4.46875 0.140625 Z M 4.46875 0.140625 "/></g></g></g><g fill="#000000" fill-opacity="1"><g transform="translate(38.225361, 193.502177)"><g><path d="M 7.234375 0 L 6.65625 -2.625 L 5.875 -5.9375 L 5.828125 -5.9375 L 4.46875 0 L 2.265625 0 L 0.140625 -7.5 L 2.171875 -7.5 L 3.03125 -4.171875 C 3.175781 -3.578125 3.316406 -2.757812 3.453125 -1.71875 L 3.5 -1.71875 C 3.519531 -2.050781 3.597656 -2.585938 3.734375 -3.328125 L 3.84375 -3.90625 L 4.765625 -7.5 L 7.015625 -7.5 L 7.90625 -3.90625 C 7.914062 -3.800781 7.941406 -3.648438 7.984375 -3.453125 C 8.023438 -3.265625 8.0625 -3.0625 8.09375 -2.84375 C 8.125 -2.632812 8.15625 -2.425781 8.1875 -2.21875 C 8.21875 -2.007812 8.234375 -1.84375 8.234375 -1.71875 L 8.28125 -1.71875 C 8.320312 -2.039062 8.394531 -2.484375 8.5 -3.046875 C 8.601562 -3.609375 8.675781 -3.984375 8.71875 -4.171875 L 9.609375 -7.5 L 11.625 -7.5 L 9.46875 0 Z M 7.234375 0 "/></g></g></g><g fill="#000000" fill-opacity="1"><g transform="translate(49.980827, 193.502177)"><g><path d="M 5.828125 0 L 5.4375 -1.015625 L 5.390625 -1.015625 C 5.046875 -0.585938 4.691406 -0.285156 4.328125 -0.109375 C 3.960938 0.0546875 3.484375 0.140625 2.890625 0.140625 C 2.171875 0.140625 1.601562 -0.0625 1.1875 -0.46875 C 0.78125 -0.882812 0.578125 -1.472656 0.578125 -2.234375 C 0.578125 -3.035156 0.851562 -3.625 1.40625 -4 C 1.96875 -4.375 2.8125 -4.582031 3.9375 -4.625 L 5.234375 -4.671875 L 5.234375 -5 C 5.234375 -5.757812 4.84375 -6.140625 4.0625 -6.140625 C 3.46875 -6.140625 2.765625 -5.957031 1.953125 -5.59375 L 1.28125 -6.96875 C 2.132812 -7.425781 3.085938 -7.65625 4.140625 -7.65625 C 5.148438 -7.65625 5.921875 -7.4375 6.453125 -7 C 6.992188 -6.5625 7.265625 -5.894531 7.265625 -5 L 7.265625 0 Z M 5.234375 -3.46875 L 4.4375 -3.453125 C 3.84375 -3.429688 3.398438 -3.320312 3.109375 -3.125 C 2.816406 -2.925781 2.671875 -2.625 2.671875 -2.21875 C 2.671875 -1.644531 3.003906 -1.359375 3.671875 -1.359375 C 4.140625 -1.359375 4.515625 -1.492188 4.796875 -1.765625 C 5.085938 -2.035156 5.234375 -2.398438 5.234375 -2.859375 Z M 5.234375 -3.46875 "/></g></g></g><g fill="#000000" fill-opacity="1"><g transform="translate(58.276042, 193.502177)"><g><path d="M 5.25 -7.640625 C 5.53125 -7.640625 5.765625 -7.617188 5.953125 -7.578125 L 5.796875 -5.65625 C 5.628906 -5.707031 5.425781 -5.734375 5.1875 -5.734375 C 4.539062 -5.734375 4.035156 -5.5625 3.671875 -5.21875 C 3.304688 -4.882812 3.125 -4.414062 3.125 -3.8125 L 3.125 0 L 1.078125 0 L 1.078125 -7.5 L 2.625 -7.5 L 2.921875 -6.234375 L 3.03125 -6.234375 C 3.257812 -6.660156 3.570312 -7 3.96875 -7.25 C 4.363281 -7.507812 4.789062 -7.640625 5.25 -7.640625 Z M 5.25 -7.640625 "/></g></g></g><g fill="#000000" fill-opacity="1"><g transform="translate(64.512541, 193.502177)"><g><path d="M 3.453125 0.140625 C 2.566406 0.140625 1.867188 -0.203125 1.359375 -0.890625 C 0.859375 -1.578125 0.609375 -2.523438 0.609375 -3.734375 C 0.609375 -4.960938 0.863281 -5.921875 1.375 -6.609375 C 1.894531 -7.296875 2.601562 -7.640625 3.5 -7.640625 C 4.445312 -7.640625 5.164062 -7.269531 5.65625 -6.53125 L 5.734375 -6.53125 C 5.628906 -7.09375 5.578125 -7.59375 5.578125 -8.03125 L 5.578125 -10.4375 L 7.625 -10.4375 L 7.625 0 L 6.0625 0 L 5.65625 -0.96875 L 5.578125 -0.96875 C 5.109375 -0.226562 4.398438 0.140625 3.453125 0.140625 Z M 4.171875 -1.5 C 4.691406 -1.5 5.070312 -1.648438 5.3125 -1.953125 C 5.5625 -2.253906 5.695312 -2.769531 5.71875 -3.5 L 5.71875 -3.71875 C 5.71875 -4.519531 5.59375 -5.09375 5.34375 -5.4375 C 5.09375 -5.789062 4.6875 -5.96875 4.125 -5.96875 C 3.675781 -5.96875 3.320312 -5.773438 3.0625 -5.390625 C 2.8125 -5.003906 2.6875 -4.441406 2.6875 -3.703125 C 2.6875 -2.972656 2.8125 -2.421875 3.0625 -2.046875 C 3.320312 -1.679688 3.691406 -1.5 4.171875 -1.5 Z M 4.171875 -1.5 "/></g></g></g><g fill="#000000" fill-opacity="1"><g transform="translate(73.203405, 193.502177)"><g/></g></g><g fill="#000000" fill-opacity="1"><g transform="translate(76.770951, 193.502177)"><g><path d="M 5.609375 -9.796875 L 1.953125 0 L 0.09375 0 L 3.75 -9.796875 Z M 5.609375 -9.796875 "/></g></g></g><g fill="#000000" fill-opacity="1"><g transform="translate(82.444153, 193.502177)"><g/></g></g><g fill="#000000" fill-opacity="1"><g transform="translate(86.011699, 193.502177)"><g><path d="M 7.015625 -2.71875 C 7.015625 -1.832031 6.695312 -1.132812 6.0625 -0.625 C 5.425781 -0.113281 4.539062 0.140625 3.40625 0.140625 C 2.363281 0.140625 1.4375 -0.0546875 0.625 -0.453125 L 0.625 -2.390625 C 1.289062 -2.085938 1.851562 -1.875 2.3125 -1.75 C 2.769531 -1.632812 3.1875 -1.578125 3.5625 -1.578125 C 4.019531 -1.578125 4.367188 -1.664062 4.609375 -1.84375 C 4.859375 -2.019531 4.984375 -2.28125 4.984375 -2.625 C 4.984375 -2.8125 4.925781 -2.976562 4.8125 -3.125 C 4.707031 -3.28125 4.550781 -3.425781 4.34375 -3.5625 C 4.132812 -3.707031 3.710938 -3.929688 3.078125 -4.234375 C 2.472656 -4.515625 2.019531 -4.785156 1.71875 -5.046875 C 1.425781 -5.304688 1.191406 -5.609375 1.015625 -5.953125 C 0.835938 -6.296875 0.75 -6.695312 0.75 -7.15625 C 0.75 -8.019531 1.039062 -8.703125 1.625 -9.203125 C 2.21875 -9.703125 3.03125 -9.953125 4.0625 -9.953125 C 4.570312 -9.953125 5.054688 -9.890625 5.515625 -9.765625 C 5.984375 -9.640625 6.46875 -9.46875 6.96875 -9.25 L 6.296875 -7.640625 C 5.773438 -7.847656 5.34375 -7.992188 5 -8.078125 C 4.664062 -8.171875 4.332031 -8.21875 4 -8.21875 C 3.601562 -8.21875 3.300781 -8.125 3.09375 -7.9375 C 2.882812 -7.757812 2.78125 -7.519531 2.78125 -7.21875 C 2.78125 -7.039062 2.820312 -6.878906 2.90625 -6.734375 C 2.988281 -6.597656 3.125 -6.46875 3.3125 -6.34375 C 3.5 -6.21875 3.9375 -5.988281 4.625 -5.65625 C 5.539062 -5.21875 6.164062 -4.78125 6.5 -4.34375 C 6.84375 -3.90625 7.015625 -3.363281 7.015625 -2.71875 Z M 7.015625 -2.71875 "/></g></g></g><g fill="#000000" fill-opacity="1"><g transform="translate(93.57597, 193.502177)"><g><path d="M 4.234375 -1.5 C 4.585938 -1.5 5.015625 -1.578125 5.515625 -1.734375 L 5.515625 -0.203125 C 5.003906 0.0234375 4.378906 0.140625 3.640625 0.140625 C 2.828125 0.140625 2.234375 -0.0664062 1.859375 -0.484375 C 1.484375 -0.898438 1.296875 -1.519531 1.296875 -2.34375 L 1.296875 -5.96875 L 0.3125 -5.96875 L 0.3125 -6.828125 L 1.4375 -7.515625 L 2.03125 -9.09375 L 3.34375 -9.09375 L 3.34375 -7.5 L 5.4375 -7.5 L 5.4375 -5.96875 L 3.34375 -5.96875 L 3.34375 -2.34375 C 3.34375 -2.050781 3.421875 -1.835938 3.578125 -1.703125 C 3.742188 -1.566406 3.960938 -1.5 4.234375 -1.5 Z M 4.234375 -1.5 "/></g></g></g><g fill="#000000" fill-opacity="1"><g transform="translate(99.537527, 193.502177)"><g><path d="M 5.828125 0 L 5.4375 -1.015625 L 5.390625 -1.015625 C 5.046875 -0.585938 4.691406 -0.285156 4.328125 -0.109375 C 3.960938 0.0546875 3.484375 0.140625 2.890625 0.140625 C 2.171875 0.140625 1.601562 -0.0625 1.1875 -0.46875 C 0.78125 -0.882812 0.578125 -1.472656 0.578125 -2.234375 C 0.578125 -3.035156 0.851562 -3.625 1.40625 -4 C 1.96875 -4.375 2.8125 -4.582031 3.9375 -4.625 L 5.234375 -4.671875 L 5.234375 -5 C 5.234375 -5.757812 4.84375 -6.140625 4.0625 -6.140625 C 3.46875 -6.140625 2.765625 -5.957031 1.953125 -5.59375 L 1.28125 -6.96875 C 2.132812 -7.425781 3.085938 -7.65625 4.140625 -7.65625 C 5.148438 -7.65625 5.921875 -7.4375 6.453125 -7 C 6.992188 -6.5625 7.265625 -5.894531 7.265625 -5 L 7.265625 0 Z M 5.234375 -3.46875 L 4.4375 -3.453125 C 3.84375 -3.429688 3.398438 -3.320312 3.109375 -3.125 C 2.816406 -2.925781 2.671875 -2.625 2.671875 -2.21875 C 2.671875 -1.644531 3.003906 -1.359375 3.671875 -1.359375 C 4.140625 -1.359375 4.515625 -1.492188 4.796875 -1.765625 C 5.085938 -2.035156 5.234375 -2.398438 5.234375 -2.859375 Z M 5.234375 -3.46875 "/></g></g></g><g fill="#000000" fill-opacity="1"><g transform="translate(107.832741, 193.502177)"><g><path d="M 4.234375 -1.5 C 4.585938 -1.5 5.015625 -1.578125 5.515625 -1.734375 L 5.515625 -0.203125 C 5.003906 0.0234375 4.378906 0.140625 3.640625 0.140625 C 2.828125 0.140625 2.234375 -0.0664062 1.859375 -0.484375 C 1.484375 -0.898438 1.296875 -1.519531 1.296875 -2.34375 L 1.296875 -5.96875 L 0.3125 -5.96875 L 0.3125 -6.828125 L 1.4375 -7.515625 L 2.03125 -9.09375 L 3.34375 -9.09375 L 3.34375 -7.5 L 5.4375 -7.5 L 5.4375 -5.96875 L 3.34375 -5.96875 L 3.34375 -2.34375 C 3.34375 -2.050781 3.421875 -1.835938 3.578125 -1.703125 C 3.742188 -1.566406 3.960938 -1.5 4.234375 -1.5 Z M 4.234375 -1.5 "/></g></g></g><g fill="#000000" fill-opacity="1"><g transform="translate(113.794298, 193.502177)"><g><path d="M 4.171875 -6.1875 C 3.742188 -6.1875 3.40625 -6.046875 3.15625 -5.765625 C 2.914062 -5.492188 2.773438 -5.101562 2.734375 -4.59375 L 5.609375 -4.59375 C 5.597656 -5.101562 5.460938 -5.492188 5.203125 -5.765625 C 4.953125 -6.046875 4.609375 -6.1875 4.171875 -6.1875 Z M 4.46875 0.140625 C 3.257812 0.140625 2.3125 -0.191406 1.625 -0.859375 C 0.945312 -1.523438 0.609375 -2.46875 0.609375 -3.6875 C 0.609375 -4.945312 0.921875 -5.921875 1.546875 -6.609375 C 2.179688 -7.296875 3.054688 -7.640625 4.171875 -7.640625 C 5.222656 -7.640625 6.046875 -7.335938 6.640625 -6.734375 C 7.234375 -6.128906 7.53125 -5.296875 7.53125 -4.234375 L 7.53125 -3.234375 L 2.6875 -3.234375 C 2.707031 -2.660156 2.878906 -2.207031 3.203125 -1.875 C 3.523438 -1.550781 3.976562 -1.390625 4.5625 -1.390625 C 5.007812 -1.390625 5.429688 -1.4375 5.828125 -1.53125 C 6.234375 -1.625 6.660156 -1.773438 7.109375 -1.984375 L 7.109375 -0.390625 C 6.742188 -0.210938 6.359375 -0.0820312 5.953125 0 C 5.546875 0.09375 5.050781 0.140625 4.46875 0.140625 Z M 4.46875 0.140625 "/></g></g></g><g clip-path="url(#7a59b0f729)"><g clip-path="url(#7a16730502)"><g transform="matrix(1, 0, 0, 1, 1, 429)"><g clip-path="url(#29ef221fca)"><g clip-path="url(#b3206a53e3)"><g clip-path="url(#c87a356178)"><path fill="#00bf63" d="M 0.136719 0.0703125 L 141.339844 0.0703125 L 141.339844 91.351562 L 0.136719 91.351562 Z M 0.136719 0.0703125 " fill-opacity="1" fill-rule="nonzero"/></g></g></g></g></g></g><g fill="#000000" fill-opacity="1"><g transform="translate(49.68713, 479.126571)"><g><path d="M 7.234375 0 L 6.53125 -2.328125 L 2.953125 -2.328125 L 2.234375 0 L 0 0 L 3.453125 -9.84375 L 6 -9.84375 L 9.46875 0 Z M 6.03125 -4.078125 C 5.375 -6.191406 5.003906 -7.382812 4.921875 -7.65625 C 4.835938 -7.9375 4.773438 -8.160156 4.734375 -8.328125 C 4.585938 -7.753906 4.164062 -6.335938 3.46875 -4.078125 Z M 6.03125 -4.078125 "/></g></g></g><g fill="#000000" fill-opacity="1"><g transform="translate(59.162586, 479.126571)"><g><path d="M 4.125 0.140625 C 1.78125 0.140625 0.609375 -1.140625 0.609375 -3.703125 C 0.609375 -4.984375 0.925781 -5.957031 1.5625 -6.625 C 2.195312 -7.300781 3.109375 -7.640625 4.296875 -7.640625 C 5.160156 -7.640625 5.9375 -7.46875 6.625 -7.125 L 6.03125 -5.546875 C 5.707031 -5.671875 5.40625 -5.773438 5.125 -5.859375 C 4.851562 -5.941406 4.578125 -5.984375 4.296875 -5.984375 C 3.234375 -5.984375 2.703125 -5.226562 2.703125 -3.71875 C 2.703125 -2.25 3.234375 -1.515625 4.296875 -1.515625 C 4.691406 -1.515625 5.054688 -1.566406 5.390625 -1.671875 C 5.722656 -1.785156 6.054688 -1.953125 6.390625 -2.171875 L 6.390625 -0.421875 C 6.066406 -0.210938 5.734375 -0.0664062 5.390625 0.015625 C 5.054688 0.0976562 4.632812 0.140625 4.125 0.140625 Z M 4.125 0.140625 "/></g></g></g><g fill="#000000" fill-opacity="1"><g transform="translate(66.223913, 479.126571)"><g><path d="M 4.234375 -1.5 C 4.585938 -1.5 5.015625 -1.578125 5.515625 -1.734375 L 5.515625 -0.203125 C 5.003906 0.0234375 4.378906 0.140625 3.640625 0.140625 C 2.828125 0.140625 2.234375 -0.0664062 1.859375 -0.484375 C 1.484375 -0.898438 1.296875 -1.519531 1.296875 -2.34375 L 1.296875 -5.96875 L 0.3125 -5.96875 L 0.3125 -6.828125 L 1.4375 -7.515625 L 2.03125 -9.09375 L 3.34375 -9.09375 L 3.34375 -7.5 L 5.4375 -7.5 L 5.4375 -5.96875 L 3.34375 -5.96875 L 3.34375 -2.34375 C 3.34375 -2.050781 3.421875 -1.835938 3.578125 -1.703125 C 3.742188 -1.566406 3.960938 -1.5 4.234375 -1.5 Z M 4.234375 -1.5 "/></g></g></g><g fill="#000000" fill-opacity="1"><g transform="translate(72.18547, 479.126571)"><g><path d="M 0.984375 -9.4375 C 0.984375 -10.101562 1.351562 -10.4375 2.09375 -10.4375 C 2.84375 -10.4375 3.21875 -10.101562 3.21875 -9.4375 C 3.21875 -9.113281 3.125 -8.863281 2.9375 -8.6875 C 2.75 -8.519531 2.46875 -8.4375 2.09375 -8.4375 C 1.351562 -8.4375 0.984375 -8.769531 0.984375 -9.4375 Z M 3.125 0 L 1.078125 0 L 1.078125 -7.5 L 3.125 -7.5 Z M 3.125 0 "/></g></g></g><g fill="#000000" fill-opacity="1"><g transform="translate(76.376665, 479.126571)"><g><path d="M 2.703125 -3.765625 C 2.703125 -3.023438 2.820312 -2.460938 3.0625 -2.078125 C 3.3125 -1.703125 3.710938 -1.515625 4.265625 -1.515625 C 4.804688 -1.515625 5.195312 -1.703125 5.4375 -2.078125 C 5.675781 -2.453125 5.796875 -3.015625 5.796875 -3.765625 C 5.796875 -4.503906 5.671875 -5.054688 5.421875 -5.421875 C 5.179688 -5.796875 4.789062 -5.984375 4.25 -5.984375 C 3.695312 -5.984375 3.300781 -5.796875 3.0625 -5.421875 C 2.820312 -5.054688 2.703125 -4.503906 2.703125 -3.765625 Z M 7.890625 -3.765625 C 7.890625 -2.546875 7.566406 -1.585938 6.921875 -0.890625 C 6.273438 -0.203125 5.378906 0.140625 4.234375 0.140625 C 3.515625 0.140625 2.878906 -0.015625 2.328125 -0.328125 C 1.773438 -0.648438 1.347656 -1.101562 1.046875 -1.6875 C 0.753906 -2.28125 0.609375 -2.972656 0.609375 -3.765625 C 0.609375 -4.984375 0.925781 -5.929688 1.5625 -6.609375 C 2.207031 -7.296875 3.109375 -7.640625 4.265625 -7.640625 C 4.992188 -7.640625 5.628906 -7.484375 6.171875 -7.171875 C 6.722656 -6.859375 7.144531 -6.40625 7.4375 -5.8125 C 7.738281 -5.226562 7.890625 -4.546875 7.890625 -3.765625 Z M 7.890625 -3.765625 "/></g></g></g><g fill="#000000" fill-opacity="1"><g transform="translate(84.879764, 479.126571)"><g><path d="M 8 0 L 5.953125 0 L 5.953125 -4.375 C 5.953125 -4.914062 5.851562 -5.320312 5.65625 -5.59375 C 5.46875 -5.863281 5.160156 -6 4.734375 -6 C 4.171875 -6 3.757812 -5.804688 3.5 -5.421875 C 3.25 -5.046875 3.125 -4.414062 3.125 -3.53125 L 3.125 0 L 1.078125 0 L 1.078125 -7.5 L 2.640625 -7.5 L 2.90625 -6.53125 L 3.03125 -6.53125 C 3.25 -6.894531 3.554688 -7.171875 3.953125 -7.359375 C 4.359375 -7.546875 4.816406 -7.640625 5.328125 -7.640625 C 6.203125 -7.640625 6.863281 -7.398438 7.3125 -6.921875 C 7.769531 -6.453125 8 -5.773438 8 -4.890625 Z M 8 0 "/></g></g></g><g clip-path="url(#e682e7277d)"><g clip-path="url(#b55832298f)"><g transform="matrix(1, 0, 0, 1, 1, 571)"><g clip-path="url(#c045d23973)"><g clip-path="url(#82219a6712)"><g clip-path="url(#ca84671b39)"><path fill="#00bf63" d="M 0.136719 0.882812 L 141.339844 0.882812 L 141.339844 92.164062 L 0.136719 92.164062 Z M 0.136719 0.882812 " fill-opacity="1" fill-rule="nonzero"/></g></g></g></g></g></g><g fill="#000000" fill-opacity="1"><g transform="translate(27.073667, 621.938755)"><g><path d="M 5.015625 0 L 2.9375 0 L 2.9375 -8.078125 L 0.28125 -8.078125 L 0.28125 -9.796875 L 7.671875 -9.796875 L 7.671875 -8.078125 L 5.015625 -8.078125 Z M 5.015625 0 "/></g></g></g><g fill="#000000" fill-opacity="1"><g transform="translate(35.02688, 621.938755)"><g><path d="M 5.25 -7.640625 C 5.53125 -7.640625 5.765625 -7.617188 5.953125 -7.578125 L 5.796875 -5.65625 C 5.628906 -5.707031 5.425781 -5.734375 5.1875 -5.734375 C 4.539062 -5.734375 4.035156 -5.5625 3.671875 -5.21875 C 3.304688 -4.882812 3.125 -4.414062 3.125 -3.8125 L 3.125 0 L 1.078125 0 L 1.078125 -7.5 L 2.625 -7.5 L 2.921875 -6.234375 L 3.03125 -6.234375 C 3.257812 -6.660156 3.570312 -7 3.96875 -7.25 C 4.363281 -7.507812 4.789062 -7.640625 5.25 -7.640625 Z M 5.25 -7.640625 "/></g></g></g><g fill="#000000" fill-opacity="1"><g transform="translate(41.26338, 621.938755)"><g><path d="M 5.828125 0 L 5.4375 -1.015625 L 5.390625 -1.015625 C 5.046875 -0.585938 4.691406 -0.285156 4.328125 -0.109375 C 3.960938 0.0546875 3.484375 0.140625 2.890625 0.140625 C 2.171875 0.140625 1.601562 -0.0625 1.1875 -0.46875 C 0.78125 -0.882812 0.578125 -1.472656 0.578125 -2.234375 C 0.578125 -3.035156 0.851562 -3.625 1.40625 -4 C 1.96875 -4.375 2.8125 -4.582031 3.9375 -4.625 L 5.234375 -4.671875 L 5.234375 -5 C 5.234375 -5.757812 4.84375 -6.140625 4.0625 -6.140625 C 3.46875 -6.140625 2.765625 -5.957031 1.953125 -5.59375 L 1.28125 -6.96875 C 2.132812 -7.425781 3.085938 -7.65625 4.140625 -7.65625 C 5.148438 -7.65625 5.921875 -7.4375 6.453125 -7 C 6.992188 -6.5625 7.265625 -5.894531 7.265625 -5 L 7.265625 0 Z M 5.234375 -3.46875 L 4.4375 -3.453125 C 3.84375 -3.429688 3.398438 -3.320312 3.109375 -3.125 C 2.816406 -2.925781 2.671875 -2.625 2.671875 -2.21875 C 2.671875 -1.644531 3.003906 -1.359375 3.671875 -1.359375 C 4.140625 -1.359375 4.515625 -1.492188 4.796875 -1.765625 C 5.085938 -2.035156 5.234375 -2.398438 5.234375 -2.859375 Z M 5.234375 -3.46875 "/></g></g></g><g fill="#000000" fill-opacity="1"><g transform="translate(49.558595, 621.938755)"><g><path d="M 5.21875 -5.96875 L 3.453125 -5.96875 L 3.453125 0 L 1.40625 0 L 1.40625 -5.96875 L 0.28125 -5.96875 L 0.28125 -6.953125 L 1.40625 -7.5 L 1.40625 -8.046875 C 1.40625 -8.898438 1.613281 -9.523438 2.03125 -9.921875 C 2.445312 -10.316406 3.117188 -10.515625 4.046875 -10.515625 C 4.753906 -10.515625 5.382812 -10.40625 5.9375 -10.1875 L 5.40625 -8.6875 C 5 -8.820312 4.617188 -8.890625 4.265625 -8.890625 C 3.984375 -8.890625 3.773438 -8.800781 3.640625 -8.625 C 3.515625 -8.457031 3.453125 -8.238281 3.453125 -7.96875 L 3.453125 -7.5 L 5.21875 -7.5 Z M 5.21875 -5.96875 "/></g></g></g><g fill="#000000" fill-opacity="1"><g transform="translate(54.876384, 621.938755)"><g><path d="M 5.21875 -5.96875 L 3.453125 -5.96875 L 3.453125 0 L 1.40625 0 L 1.40625 -5.96875 L 0.28125 -5.96875 L 0.28125 -6.953125 L 1.40625 -7.5 L 1.40625 -8.046875 C 1.40625 -8.898438 1.613281 -9.523438 2.03125 -9.921875 C 2.445312 -10.316406 3.117188 -10.515625 4.046875 -10.515625 C 4.753906 -10.515625 5.382812 -10.40625 5.9375 -10.1875 L 5.40625 -8.6875 C 5 -8.820312 4.617188 -8.890625 4.265625 -8.890625 C 3.984375 -8.890625 3.773438 -8.800781 3.640625 -8.625 C 3.515625 -8.457031 3.453125 -8.238281 3.453125 -7.96875 L 3.453125 -7.5 L 5.21875 -7.5 Z M 5.21875 -5.96875 "/></g></g></g><g fill="#000000" fill-opacity="1"><g transform="translate(60.194173, 621.938755)"><g><path d="M 0.984375 -9.4375 C 0.984375 -10.101562 1.351562 -10.4375 2.09375 -10.4375 C 2.84375 -10.4375 3.21875 -10.101562 3.21875 -9.4375 C 3.21875 -9.113281 3.125 -8.863281 2.9375 -8.6875 C 2.75 -8.519531 2.46875 -8.4375 2.09375 -8.4375 C 1.351562 -8.4375 0.984375 -8.769531 0.984375 -9.4375 Z M 3.125 0 L 1.078125 0 L 1.078125 -7.5 L 3.125 -7.5 Z M 3.125 0 "/></g></g></g><g fill="#000000" fill-opacity="1"><g transform="translate(64.385369, 621.938755)"><g><path d="M 4.125 0.140625 C 1.78125 0.140625 0.609375 -1.140625 0.609375 -3.703125 C 0.609375 -4.984375 0.925781 -5.957031 1.5625 -6.625 C 2.195312 -7.300781 3.109375 -7.640625 4.296875 -7.640625 C 5.160156 -7.640625 5.9375 -7.46875 6.625 -7.125 L 6.03125 -5.546875 C 5.707031 -5.671875 5.40625 -5.773438 5.125 -5.859375 C 4.851562 -5.941406 4.578125 -5.984375 4.296875 -5.984375 C 3.234375 -5.984375 2.703125 -5.226562 2.703125 -3.71875 C 2.703125 -2.25 3.234375 -1.515625 4.296875 -1.515625 C 4.691406 -1.515625 5.054688 -1.566406 5.390625 -1.671875 C 5.722656 -1.785156 6.054688 -1.953125 6.390625 -2.171875 L 6.390625 -0.421875 C 6.066406 -0.210938 5.734375 -0.0664062 5.390625 0.015625 C 5.054688 0.0976562 4.632812 0.140625 4.125 0.140625 Z M 4.125 0.140625 "/></g></g></g><g fill="#000000" fill-opacity="1"><g transform="translate(71.446696, 621.938755)"><g/></g></g><g fill="#000000" fill-opacity="1"><g transform="translate(75.014242, 621.938755)"><g><path d="M 1.234375 0 L 1.234375 -9.796875 L 3.3125 -9.796875 L 3.3125 -1.71875 L 7.296875 -1.71875 L 7.296875 0 Z M 1.234375 0 "/></g></g></g><g fill="#000000" fill-opacity="1"><g transform="translate(82.772984, 621.938755)"><g><path d="M 0.984375 -9.4375 C 0.984375 -10.101562 1.351562 -10.4375 2.09375 -10.4375 C 2.84375 -10.4375 3.21875 -10.101562 3.21875 -9.4375 C 3.21875 -9.113281 3.125 -8.863281 2.9375 -8.6875 C 2.75 -8.519531 2.46875 -8.4375 2.09375 -8.4375 C 1.351562 -8.4375 0.984375 -8.769531 0.984375 -9.4375 Z M 3.125 0 L 1.078125 0 L 1.078125 -7.5 L 3.125 -7.5 Z M 3.125 0 "/></g></g></g><g fill="#000000" fill-opacity="1"><g transform="translate(86.964179, 621.938755)"><g><path d="M 7.59375 -7.5 L 7.59375 -6.453125 L 6.421875 -6.15625 C 6.640625 -5.820312 6.75 -5.445312 6.75 -5.03125 C 6.75 -4.226562 6.46875 -3.597656 5.90625 -3.140625 C 5.34375 -2.691406 4.5625 -2.46875 3.5625 -2.46875 L 3.203125 -2.5 L 2.890625 -2.53125 C 2.679688 -2.363281 2.578125 -2.179688 2.578125 -1.984375 C 2.578125 -1.691406 2.953125 -1.546875 3.703125 -1.546875 L 4.984375 -1.546875 C 5.804688 -1.546875 6.429688 -1.367188 6.859375 -1.015625 C 7.296875 -0.660156 7.515625 -0.144531 7.515625 0.53125 C 7.515625 1.40625 7.144531 2.082031 6.40625 2.5625 C 5.675781 3.050781 4.628906 3.296875 3.265625 3.296875 C 2.222656 3.296875 1.425781 3.113281 0.875 2.75 C 0.320312 2.382812 0.046875 1.875 0.046875 1.21875 C 0.046875 0.769531 0.1875 0.390625 0.46875 0.078125 C 0.75 -0.222656 1.160156 -0.4375 1.703125 -0.5625 C 1.492188 -0.65625 1.3125 -0.800781 1.15625 -1 C 1 -1.207031 0.921875 -1.425781 0.921875 -1.65625 C 0.921875 -1.9375 1.003906 -2.171875 1.171875 -2.359375 C 1.335938 -2.554688 1.578125 -2.742188 1.890625 -2.921875 C 1.492188 -3.085938 1.179688 -3.359375 0.953125 -3.734375 C 0.722656 -4.117188 0.609375 -4.5625 0.609375 -5.0625 C 0.609375 -5.882812 0.875 -6.519531 1.40625 -6.96875 C 1.9375 -7.414062 2.695312 -7.640625 3.6875 -7.640625 C 3.894531 -7.640625 4.140625 -7.617188 4.421875 -7.578125 C 4.710938 -7.546875 4.898438 -7.519531 4.984375 -7.5 Z M 1.8125 1.0625 C 1.8125 1.34375 1.945312 1.5625 2.21875 1.71875 C 2.488281 1.882812 2.867188 1.96875 3.359375 1.96875 C 4.085938 1.96875 4.660156 1.863281 5.078125 1.65625 C 5.492188 1.457031 5.703125 1.1875 5.703125 0.84375 C 5.703125 0.5625 5.578125 0.363281 5.328125 0.25 C 5.085938 0.144531 4.707031 0.09375 4.1875 0.09375 L 3.125 0.09375 C 2.75 0.09375 2.4375 0.179688 2.1875 0.359375 C 1.9375 0.535156 1.8125 0.769531 1.8125 1.0625 Z M 2.5625 -5.046875 C 2.5625 -4.640625 2.648438 -4.316406 2.828125 -4.078125 C 3.015625 -3.835938 3.300781 -3.71875 3.6875 -3.71875 C 4.070312 -3.71875 4.351562 -3.835938 4.53125 -4.078125 C 4.707031 -4.316406 4.796875 -4.640625 4.796875 -5.046875 C 4.796875 -5.941406 4.425781 -6.390625 3.6875 -6.390625 C 2.9375 -6.390625 2.5625 -5.941406 2.5625 -5.046875 Z M 2.5625 -5.046875 "/></g></g></g><g fill="#000000" fill-opacity="1"><g transform="translate(94.722921, 621.938755)"><g><path d="M 8 0 L 5.953125 0 L 5.953125 -4.375 C 5.953125 -5.457031 5.546875 -6 4.734375 -6 C 4.171875 -6 3.757812 -5.800781 3.5 -5.40625 C 3.25 -5.019531 3.125 -4.394531 3.125 -3.53125 L 3.125 0 L 1.078125 0 L 1.078125 -10.4375 L 3.125 -10.4375 L 3.125 -8.3125 C 3.125 -8.144531 3.109375 -7.753906 3.078125 -7.140625 L 3.03125 -6.53125 L 3.125 -6.53125 C 3.582031 -7.269531 4.304688 -7.640625 5.296875 -7.640625 C 6.179688 -7.640625 6.851562 -7.398438 7.3125 -6.921875 C 7.769531 -6.453125 8 -5.773438 8 -4.890625 Z M 8 0 "/></g></g></g><g fill="#000000" fill-opacity="1"><g transform="translate(103.749081, 621.938755)"><g><path d="M 4.234375 -1.5 C 4.585938 -1.5 5.015625 -1.578125 5.515625 -1.734375 L 5.515625 -0.203125 C 5.003906 0.0234375 4.378906 0.140625 3.640625 0.140625 C 2.828125 0.140625 2.234375 -0.0664062 1.859375 -0.484375 C 1.484375 -0.898438 1.296875 -1.519531 1.296875 -2.34375 L 1.296875 -5.96875 L 0.3125 -5.96875 L 0.3125 -6.828125 L 1.4375 -7.515625 L 2.03125 -9.09375 L 3.34375 -9.09375 L 3.34375 -7.5 L 5.4375 -7.5 L 5.4375 -5.96875 L 3.34375 -5.96875 L 3.34375 -2.34375 C 3.34375 -2.050781 3.421875 -1.835938 3.578125 -1.703125 C 3.742188 -1.566406 3.960938 -1.5 4.234375 -1.5 Z M 4.234375 -1.5 "/></g></g></g><g fill="#000000" fill-opacity="1"><g transform="translate(109.710638, 621.938755)"><g><path d="M 6.296875 -2.21875 C 6.296875 -1.457031 6.03125 -0.875 5.5 -0.46875 C 4.96875 -0.0625 4.171875 0.140625 3.109375 0.140625 C 2.554688 0.140625 2.085938 0.0976562 1.703125 0.015625 C 1.328125 -0.0546875 0.96875 -0.160156 0.625 -0.296875 L 0.625 -1.984375 C 1.007812 -1.804688 1.4375 -1.65625 1.90625 -1.53125 C 2.382812 -1.414062 2.804688 -1.359375 3.171875 -1.359375 C 3.910156 -1.359375 4.28125 -1.570312 4.28125 -2 C 4.28125 -2.164062 4.226562 -2.296875 4.125 -2.390625 C 4.03125 -2.492188 3.863281 -2.609375 3.625 -2.734375 C 3.382812 -2.867188 3.0625 -3.019531 2.65625 -3.1875 C 2.082031 -3.425781 1.660156 -3.648438 1.390625 -3.859375 C 1.117188 -4.066406 0.921875 -4.300781 0.796875 -4.5625 C 0.671875 -4.832031 0.609375 -5.160156 0.609375 -5.546875 C 0.609375 -6.210938 0.867188 -6.726562 1.390625 -7.09375 C 1.910156 -7.457031 2.644531 -7.640625 3.59375 -7.640625 C 4.488281 -7.640625 5.363281 -7.441406 6.21875 -7.046875 L 5.609375 -5.578125 C 5.234375 -5.734375 4.878906 -5.863281 4.546875 -5.96875 C 4.222656 -6.070312 3.890625 -6.125 3.546875 -6.125 C 2.953125 -6.125 2.65625 -5.960938 2.65625 -5.640625 C 2.65625 -5.453125 2.75 -5.289062 2.9375 -5.15625 C 3.132812 -5.019531 3.5625 -4.820312 4.21875 -4.5625 C 4.800781 -4.320312 5.226562 -4.097656 5.5 -3.890625 C 5.78125 -3.691406 5.984375 -3.457031 6.109375 -3.1875 C 6.234375 -2.914062 6.296875 -2.59375 6.296875 -2.21875 Z M 6.296875 -2.21875 "/></g></g></g><path stroke-linecap="round" transform="matrix(0.736145, 0, 0, 0.736145, 70.333739, 520.350718)" fill="none" stroke-linejoin="miter" d="M 1.998177 2.001644 L 1.998177 66.999215 " stroke="#acb8c0" stroke-width="4" stroke-opacity="1" stroke-miterlimit="4"/><path stroke-linecap="round" transform="matrix(0.736145, 0, 0, 0.736145, 70.333739, 520.350718)" fill="none" stroke-linejoin="round" d="M 7.999667 60.00013 L 1.998177 68.002117 L -3.998007 60.00013 " stroke="#acb8c0" stroke-width="4" stroke-opacity="1" stroke-miterlimit="4"/><g clip-path="url(#d247611f23)"><g clip-path="url(#a27aca2fcf)"><g transform="matrix(1, 0, 0, 1, 1, 286)"><g clip-path="url(#2f1bc24025)"><g clip-path="url(#51ea10a35c)"><g clip-path="url(#675e84b34c)"><path fill="#00bf63" d="M 0.136719 0.257812 L 141.339844 0.257812 L 141.339844 91.539062 L 0.136719 91.539062 Z M 0.136719 0.257812 " fill-opacity="1" fill-rule="nonzero"/></g></g></g></g></g></g><g fill="#000000" fill-opacity="1"><g transform="translate(33.721979, 336.314386)"><g><path d="M 9.375 -5 C 9.375 -3.382812 8.910156 -2.144531 7.984375 -1.28125 C 7.066406 -0.425781 5.742188 0 4.015625 0 L 1.234375 0 L 1.234375 -9.796875 L 4.3125 -9.796875 C 5.914062 -9.796875 7.160156 -9.375 8.046875 -8.53125 C 8.929688 -7.6875 9.375 -6.507812 9.375 -5 Z M 7.203125 -4.9375 C 7.203125 -7.039062 6.273438 -8.09375 4.421875 -8.09375 L 3.3125 -8.09375 L 3.3125 -1.71875 L 4.203125 -1.71875 C 6.203125 -1.71875 7.203125 -2.789062 7.203125 -4.9375 Z M 7.203125 -4.9375 "/></g></g></g><g fill="#000000" fill-opacity="1"><g transform="translate(43.888144, 336.314386)"><g><path d="M 10.140625 -4.921875 C 10.140625 -3.765625 9.929688 -2.796875 9.515625 -2.015625 C 9.109375 -1.234375 8.507812 -0.660156 7.71875 -0.296875 L 10.078125 2.328125 L 7.421875 2.328125 L 5.625 0.140625 L 5.46875 0.140625 C 3.96875 0.140625 2.8125 -0.296875 2 -1.171875 C 1.195312 -2.046875 0.796875 -3.296875 0.796875 -4.921875 C 0.796875 -6.554688 1.195312 -7.800781 2 -8.65625 C 2.8125 -9.519531 3.972656 -9.953125 5.484375 -9.953125 C 6.984375 -9.953125 8.132812 -9.519531 8.9375 -8.65625 C 9.738281 -7.789062 10.140625 -6.546875 10.140625 -4.921875 Z M 2.984375 -4.921875 C 2.984375 -3.816406 3.1875 -2.988281 3.59375 -2.4375 C 4.007812 -1.882812 4.632812 -1.609375 5.46875 -1.609375 C 7.125 -1.609375 7.953125 -2.710938 7.953125 -4.921875 C 7.953125 -7.128906 7.128906 -8.234375 5.484375 -8.234375 C 4.648438 -8.234375 4.023438 -7.953125 3.609375 -7.390625 C 3.191406 -6.835938 2.984375 -6.015625 2.984375 -4.921875 Z M 2.984375 -4.921875 "/></g></g></g><g fill="#000000" fill-opacity="1"><g transform="translate(54.818783, 336.314386)"><g><path d="M 9.9375 0 L 7.296875 0 L 3.03125 -7.421875 L 2.96875 -7.421875 C 3.050781 -6.109375 3.09375 -5.171875 3.09375 -4.609375 L 3.09375 0 L 1.234375 0 L 1.234375 -9.796875 L 3.859375 -9.796875 L 8.109375 -2.46875 L 8.15625 -2.46875 C 8.09375 -3.738281 8.0625 -4.632812 8.0625 -5.15625 L 8.0625 -9.796875 L 9.9375 -9.796875 Z M 9.9375 0 "/></g></g></g><g fill="#000000" fill-opacity="1"><g transform="translate(65.984128, 336.314386)"><g/></g></g><g fill="#000000" fill-opacity="1"><g transform="translate(69.551674, 336.314386)"><g><path d="M 7.234375 0 L 6.53125 -2.328125 L 2.953125 -2.328125 L 2.234375 0 L 0 0 L 3.453125 -9.84375 L 6 -9.84375 L 9.46875 0 Z M 6.03125 -4.078125 C 5.375 -6.191406 5.003906 -7.382812 4.921875 -7.65625 C 4.835938 -7.9375 4.773438 -8.160156 4.734375 -8.328125 C 4.585938 -7.753906 4.164062 -6.335938 3.46875 -4.078125 Z M 6.03125 -4.078125 "/></g></g></g><g fill="#000000" fill-opacity="1"><g transform="translate(79.02713, 336.314386)"><g><path d="M 7.59375 -7.5 L 7.59375 -6.453125 L 6.421875 -6.15625 C 6.640625 -5.820312 6.75 -5.445312 6.75 -5.03125 C 6.75 -4.226562 6.46875 -3.597656 5.90625 -3.140625 C 5.34375 -2.691406 4.5625 -2.46875 3.5625 -2.46875 L 3.203125 -2.5 L 2.890625 -2.53125 C 2.679688 -2.363281 2.578125 -2.179688 2.578125 -1.984375 C 2.578125 -1.691406 2.953125 -1.546875 3.703125 -1.546875 L 4.984375 -1.546875 C 5.804688 -1.546875 6.429688 -1.367188 6.859375 -1.015625 C 7.296875 -0.660156 7.515625 -0.144531 7.515625 0.53125 C 7.515625 1.40625 7.144531 2.082031 6.40625 2.5625 C 5.675781 3.050781 4.628906 3.296875 3.265625 3.296875 C 2.222656 3.296875 1.425781 3.113281 0.875 2.75 C 0.320312 2.382812 0.046875 1.875 0.046875 1.21875 C 0.046875 0.769531 0.1875 0.390625 0.46875 0.078125 C 0.75 -0.222656 1.160156 -0.4375 1.703125 -0.5625 C 1.492188 -0.65625 1.3125 -0.800781 1.15625 -1 C 1 -1.207031 0.921875 -1.425781 0.921875 -1.65625 C 0.921875 -1.9375 1.003906 -2.171875 1.171875 -2.359375 C 1.335938 -2.554688 1.578125 -2.742188 1.890625 -2.921875 C 1.492188 -3.085938 1.179688 -3.359375 0.953125 -3.734375 C 0.722656 -4.117188 0.609375 -4.5625 0.609375 -5.0625 C 0.609375 -5.882812 0.875 -6.519531 1.40625 -6.96875 C 1.9375 -7.414062 2.695312 -7.640625 3.6875 -7.640625 C 3.894531 -7.640625 4.140625 -7.617188 4.421875 -7.578125 C 4.710938 -7.546875 4.898438 -7.519531 4.984375 -7.5 Z M 1.8125 1.0625 C 1.8125 1.34375 1.945312 1.5625 2.21875 1.71875 C 2.488281 1.882812 2.867188 1.96875 3.359375 1.96875 C 4.085938 1.96875 4.660156 1.863281 5.078125 1.65625 C 5.492188 1.457031 5.703125 1.1875 5.703125 0.84375 C 5.703125 0.5625 5.578125 0.363281 5.328125 0.25 C 5.085938 0.144531 4.707031 0.09375 4.1875 0.09375 L 3.125 0.09375 C 2.75 0.09375 2.4375 0.179688 2.1875 0.359375 C 1.9375 0.535156 1.8125 0.769531 1.8125 1.0625 Z M 2.5625 -5.046875 C 2.5625 -4.640625 2.648438 -4.316406 2.828125 -4.078125 C 3.015625 -3.835938 3.300781 -3.71875 3.6875 -3.71875 C 4.070312 -3.71875 4.351562 -3.835938 4.53125 -4.078125 C 4.707031 -4.316406 4.796875 -4.640625 4.796875 -5.046875 C 4.796875 -5.941406 4.425781 -6.390625 3.6875 -6.390625 C 2.9375 -6.390625 2.5625 -5.941406 2.5625 -5.046875 Z M 2.5625 -5.046875 "/></g></g></g><g fill="#000000" fill-opacity="1"><g transform="translate(86.785872, 336.314386)"><g><path d="M 4.171875 -6.1875 C 3.742188 -6.1875 3.40625 -6.046875 3.15625 -5.765625 C 2.914062 -5.492188 2.773438 -5.101562 2.734375 -4.59375 L 5.609375 -4.59375 C 5.597656 -5.101562 5.460938 -5.492188 5.203125 -5.765625 C 4.953125 -6.046875 4.609375 -6.1875 4.171875 -6.1875 Z M 4.46875 0.140625 C 3.257812 0.140625 2.3125 -0.191406 1.625 -0.859375 C 0.945312 -1.523438 0.609375 -2.46875 0.609375 -3.6875 C 0.609375 -4.945312 0.921875 -5.921875 1.546875 -6.609375 C 2.179688 -7.296875 3.054688 -7.640625 4.171875 -7.640625 C 5.222656 -7.640625 6.046875 -7.335938 6.640625 -6.734375 C 7.234375 -6.128906 7.53125 -5.296875 7.53125 -4.234375 L 7.53125 -3.234375 L 2.6875 -3.234375 C 2.707031 -2.660156 2.878906 -2.207031 3.203125 -1.875 C 3.523438 -1.550781 3.976562 -1.390625 4.5625 -1.390625 C 5.007812 -1.390625 5.429688 -1.4375 5.828125 -1.53125 C 6.234375 -1.625 6.660156 -1.773438 7.109375 -1.984375 L 7.109375 -0.390625 C 6.742188 -0.210938 6.359375 -0.0820312 5.953125 0 C 5.546875 0.09375 5.050781 0.140625 4.46875 0.140625 Z M 4.46875 0.140625 "/></g></g></g><g fill="#000000" fill-opacity="1"><g transform="translate(94.900027, 336.314386)"><g><path d="M 8 0 L 5.953125 0 L 5.953125 -4.375 C 5.953125 -4.914062 5.851562 -5.320312 5.65625 -5.59375 C 5.46875 -5.863281 5.160156 -6 4.734375 -6 C 4.171875 -6 3.757812 -5.804688 3.5 -5.421875 C 3.25 -5.046875 3.125 -4.414062 3.125 -3.53125 L 3.125 0 L 1.078125 0 L 1.078125 -7.5 L 2.640625 -7.5 L 2.90625 -6.53125 L 3.03125 -6.53125 C 3.25 -6.894531 3.554688 -7.171875 3.953125 -7.359375 C 4.359375 -7.546875 4.816406 -7.640625 5.328125 -7.640625 C 6.203125 -7.640625 6.863281 -7.398438 7.3125 -6.921875 C 7.769531 -6.453125 8 -5.773438 8 -4.890625 Z M 8 0 "/></g></g></g><g fill="#000000" fill-opacity="1"><g transform="translate(103.926186, 336.314386)"><g><path d="M 4.234375 -1.5 C 4.585938 -1.5 5.015625 -1.578125 5.515625 -1.734375 L 5.515625 -0.203125 C 5.003906 0.0234375 4.378906 0.140625 3.640625 0.140625 C 2.828125 0.140625 2.234375 -0.0664062 1.859375 -0.484375 C 1.484375 -0.898438 1.296875 -1.519531 1.296875 -2.34375 L 1.296875 -5.96875 L 0.3125 -5.96875 L 0.3125 -6.828125 L 1.4375 -7.515625 L 2.03125 -9.09375 L 3.34375 -9.09375 L 3.34375 -7.5 L 5.4375 -7.5 L 5.4375 -5.96875 L 3.34375 -5.96875 L 3.34375 -2.34375 C 3.34375 -2.050781 3.421875 -1.835938 3.578125 -1.703125 C 3.742188 -1.566406 3.960938 -1.5 4.234375 -1.5 Z M 4.234375 -1.5 "/></g></g></g><path stroke-linecap="round" transform="matrix(0.736145, 0, 0, 0.736145, 70.01001, 234.726322)" fill="none" stroke-linejoin="miter" d="M 1.997511 2.000823 L 1.997511 34.778193 C 1.997511 34.900239 2.098332 35.00106 2.220378 35.00106 C 2.342425 35.00106 2.437939 35.096574 2.437939 35.21862 L 2.437939 66.998395 " stroke="#acb8c0" stroke-width="4" stroke-opacity="1" stroke-miterlimit="4"/><path stroke-linecap="round" transform="matrix(0.736145, 0, 0, 0.736145, 70.01001, 234.726322)" fill="none" stroke-linejoin="round" d="M 8.439429 59.999309 L 2.437939 68.001296 L -3.558245 59.999309 " stroke="#acb8c0" stroke-width="4" stroke-opacity="1" stroke-miterlimit="4"/><path stroke-linecap="round" transform="matrix(0.736145, 0, 0, 0.736145, 70.333739, 377.538502)" fill="none" stroke-linejoin="miter" d="M 1.998177 2.001258 L 1.998177 66.99883 " stroke="#acb8c0" stroke-width="4" stroke-opacity="1" stroke-miterlimit="4"/><path stroke-linecap="round" transform="matrix(0.736145, 0, 0, 0.736145, 70.333739, 377.538502)" fill="none" stroke-linejoin="round" d="M 7.999667 59.999744 L 1.998177 68.001731 L -3.998007 59.999744 " stroke="#acb8c0" stroke-width="4" stroke-opacity="1" stroke-miterlimit="4"/><path stroke-linecap="round" transform="matrix(0.736145, 0, 0, 0.736145, 70.01001, 91.673967)" fill="none" stroke-linejoin="miter" d="M 1.997511 68.327122 L 1.997511 35.385256 C 1.997511 35.263209 2.098332 35.162389 2.220378 35.162389 C 2.342425 35.162389 2.437939 35.066874 2.437939 34.944828 L 2.437939 3.000557 " stroke="#acb8c0" stroke-width="4" stroke-opacity="1" stroke-miterlimit="4"/><path stroke-linecap="round" transform="matrix(0.736145, 0, 0, 0.736145, 70.01001, 91.673967)" fill="none" stroke-linejoin="round" d="M -3.558245 9.999642 L 2.437939 1.997655 L 8.439429 9.999642 " stroke="#acb8c0" stroke-width="4" stroke-opacity="1" stroke-miterlimit="4"/></g></g></svg>